<?xml version="1.0" encoding="UTF-8" standalone="no"?>
<!-- Created with Inkscape (http://www.inkscape.org/) -->

<svg
   version="1.1"
   id="svg14844"
   width="800"
   height="800"
   viewBox="0 0 800 800"
   sodipodi:docname="yoga-pose-46-publicdomainvectors.org.svg"
   inkscape:version="1.2 (dc2aedaf03, 2022-05-15)"
   xmlns:inkscape="http://www.inkscape.org/namespaces/inkscape"
   xmlns:sodipodi="http://sodipodi.sourceforge.net/DTD/sodipodi-0.dtd"
   xmlns="http://www.w3.org/2000/svg"
   xmlns:svg="http://www.w3.org/2000/svg">
  <defs
     id="defs14848">
    <clipPath
       clipPathUnits="userSpaceOnUse"
       id="clipPath14860">
      <path
         d="M 0,600 H 600 V 0 H 0 Z"
         id="path14858" />
    </clipPath>
  </defs>
  <sodipodi:namedview
     id="namedview14846"
     pagecolor="#ffffff"
     bordercolor="#000000"
     borderopacity="0.25"
     inkscape:showpageshadow="2"
     inkscape:pageopacity="0.0"
     inkscape:pagecheckerboard="0"
     inkscape:deskcolor="#d1d1d1"
     showgrid="false"
     inkscape:zoom="1.04625"
     inkscape:cx="400"
     inkscape:cy="400.4779"
     inkscape:window-width="1920"
     inkscape:window-height="1017"
     inkscape:window-x="-8"
     inkscape:window-y="-8"
     inkscape:window-maximized="1"
     inkscape:current-layer="g14852">
    <inkscape:page
       x="0"
       y="0"
       id="page14850"
       width="800"
       height="800" />
  </sodipodi:namedview>
  <g
     id="g14852"
     inkscape:groupmode="layer"
     inkscape:label="Page 1"
     transform="matrix(1.3333333,0,0,-1.3333333,0,800)">
    <g
       id="g14854">
      <g
         id="g14856"
         clip-path="url(#clipPath14860)">
        <g
           id="g14862"
           transform="translate(227.4219,506.9697)">
          <path
             d="m 0,0 c -3.83,1.289 -7.797,2.517 -11.878,3.693 -4.43,2.581 -9.565,8.349 -14.848,14.75 -0.073,0.025 -0.146,0.05 -0.218,0.05 -0.463,3.286 -0.975,6.232 -1.681,9.64 -0.097,0.389 -0.656,0.486 -0.852,0.121 -1.533,-3.141 -3.115,-6.256 -4.917,-9.761 -0.267,-0.025 -0.535,-0.05 -0.778,-0.073 -1.339,-0.146 -2.508,-0.998 -2.945,-2.264 -0.122,-0.365 -0.22,-0.755 -0.292,-1.144 -0.171,-0.852 -0.61,-1.631 -1.316,-2.166 -0.242,-0.171 -0.486,-0.341 -0.729,-0.512 -1.388,-0.9 -2.167,-2.507 -1.972,-4.113 0.146,-1.119 0.414,-2.264 0.804,-3.457 -0.339,-0.632 -0.683,-1.272 -1.026,-1.911 l 39.299,-19.117 z"
             style="fill:#b4281c;fill-opacity:1;fill-rule:nonzero;stroke:none"
             id="path14864" />
        </g>
        <g
           id="g14866"
           transform="translate(250.3438,497.4678)">
          <path
             d="M 0,0 C -6.794,3.548 -14.525,6.676 -22.922,9.502 L -26.271,-6.762 Z"
             style="fill:#b28e76;fill-opacity:1;fill-rule:nonzero;stroke:none"
             id="path14868" />
        </g>
        <g
           id="g14870"
           transform="translate(186.6025,468.333)">
          <path
             d="m 0,0 c 0.341,0.9 1.144,1.557 2.117,1.727 2.192,0.341 4.456,0.511 6.841,0.439 1.339,-0.024 2.555,0.9 2.823,2.239 1.826,9.202 3.043,18.378 3.335,28.189 l 19.971,-12.954 2.384,2.733 -39.3,19.116 C -6.524,32.758 -11.714,23.332 -17.257,13.408 l 9.208,-35.025 C -5.426,-14.48 -2.764,-7.131 0,0"
             style="fill:#c32500;fill-opacity:1;fill-rule:nonzero;stroke:none"
             id="path14872" />
        </g>
        <g
           id="g14874"
           transform="translate(178.5537,446.7158)">
          <path
             d="M 0,0 -9.208,35.025 C -14.473,25.601 -20.054,15.728 -25.833,5.572 L -1.786,-4.832 C -1.192,-3.235 -0.598,-1.623 0,0"
             style="fill:#c10600;fill-opacity:1;fill-rule:nonzero;stroke:none"
             id="path14876" />
        </g>
        <g
           id="g14878"
           transform="translate(299.6172,460.8447)">
          <path
             d="m 0,0 c -0.612,1.931 -1.32,3.76 -2.163,5.442 -1.558,3.092 -4.234,5.478 -7.447,6.792 -4.772,1.996 -9.908,3.189 -15.361,3.579 -4.935,8.353 -13.415,15.123 -24.302,20.81 l -26.271,-6.762 z"
             style="fill:#abc38b;fill-opacity:1;fill-rule:nonzero;stroke:none"
             id="path14880" />
        </g>
        <g
           id="g14882"
           transform="translate(176.7676,441.8838)">
          <path
             d="M 0,0 -24.047,10.404 C -26.937,5.323 -29.879,0.171 -32.853,-5.03 l 32.145,3.134 C -0.472,-1.267 -0.236,-0.635 0,0"
             style="fill:#c60800;fill-opacity:1;fill-rule:nonzero;stroke:none"
             id="path14884" />
        </g>
        <g
           id="g14886"
           transform="translate(223.9697,486.4941)">
          <path
             d="M 0,0 25.897,-16.799 19.373,-39.558 19.13,-39.826 C 4.402,-37.878 -3.824,-42.698 -0.1,-59.98 c 0.554,-2.389 1.176,-4.666 1.861,-6.841 l 13.768,6.177 c 0.163,5.999 0.155,12.907 -0.05,20.842 0,0.025 0.048,0.025 0.048,0 1.488,-6.233 4.276,-11.922 9.003,-16.803 l 53.02,23.792 c -0.041,0.072 -0.082,0.142 -0.121,0.216 -0.506,2.412 -1.082,4.746 -1.782,6.948 L 0.104,4.212 Z"
             style="fill:#c8c46c;fill-opacity:1;fill-rule:nonzero;stroke:none"
             id="path14888" />
        </g>
        <g
           id="g14890"
           transform="translate(224.0732,490.7061)">
          <path
             d="m 0,0 -2.384,-2.733 2.28,-1.479 z"
             style="fill:#ce620a;fill-opacity:1;fill-rule:nonzero;stroke:none"
             id="path14892" />
        </g>
        <g
           id="g14894"
           transform="translate(253.46,353.3447)">
          <path
             d="M 0,0 69.683,25.38 8.891,49.133 C 4.71,37.487 -0.924,26.523 -7.754,16.118 Z"
             style="fill:#dae262;fill-opacity:1;fill-rule:nonzero;stroke:none"
             id="path14896" />
        </g>
        <g
           id="g14898"
           transform="translate(229.0059,411.0557)">
          <path
             d="m 0,0 c 0.9,-1.996 1.46,-4.113 1.534,-6.305 0.041,-1.254 0.034,-2.491 -0.025,-3.712 l 3.521,-7.319 c 2.07,3.212 3.667,8.898 4.612,18.02 L -2.152,5.292 C -1.483,3.447 -0.766,1.684 0,0"
             style="fill:#dae262;fill-opacity:1;fill-rule:nonzero;stroke:none"
             id="path14900" />
        </g>
        <g
           id="g14902"
           transform="translate(328.4766,385.3379)">
          <path
             d="m 0,0 c -2.278,0.137 -4.493,0.378 -6.647,0.721 l 1.313,-7.334 z"
             style="fill:#74e0e0;fill-opacity:1;fill-rule:nonzero;stroke:none"
             id="path14904" />
        </g>
        <g
           id="g14906"
           transform="translate(311.6221,444.332)">
          <path
             d="m 0,0 c 0.122,0.146 0.048,0.365 -0.122,0.437 -0.065,0.021 -0.126,0.046 -0.19,0.068 l 0.128,-0.718 C -0.123,-0.14 -0.062,-0.067 0,0"
             style="fill:#74e0e0;fill-opacity:1;fill-rule:nonzero;stroke:none"
             id="path14908" />
        </g>
        <g
           id="g14910"
           transform="translate(238.6475,411.7393)">
          <path
             d="M 0,0 C 0.415,4.012 0.704,8.689 0.852,14.111 L -12.917,7.934 c 0.357,-1.137 0.731,-2.247 1.123,-3.326 z"
             style="fill:#afdf7b;fill-opacity:1;fill-rule:nonzero;stroke:none"
             id="path14912" />
        </g>
        <g
           id="g14914"
           transform="translate(267.7334,418.4072)">
          <path
             d="m 0,0 c 1.022,-0.9 1.923,-2.507 2.41,-6.231 0.121,-1.047 -0.463,-2.02 -1.435,-2.386 -2.751,-1.071 -4.625,-3.115 -5.868,-5.939 -0.16,-0.46 -0.326,-0.916 -0.49,-1.374 l 60.792,-23.753 -1.312,7.334 c -9.724,1.547 -18.177,5.191 -25.3,11.001 -1.85,1.486 -3.116,3.603 -3.53,5.941 -0.925,5.403 0.706,9.906 4.99,13.484 0.974,0.804 2.166,1.29 3.432,1.411 4.674,0.439 8.13,1.753 10.54,3.896 0.681,0.608 0.974,1.558 0.73,2.434 -0.682,2.579 -0.852,4.917 -0.656,7.083 0.049,0.462 -0.098,0.95 -0.414,1.266 -1.217,1.218 -2.167,2.678 -2.873,4.333 -0.146,0.293 -0.146,0.633 -0.049,0.925 0.785,2.607 1.636,4.951 2.738,6.287 l -0.129,0.718 c -4.465,1.487 -7.522,4.677 -9.79,8.843 L -19.233,11.482 C -14.748,6.854 -8.52,2.951 0,0"
             style="fill:#afdf7b;fill-opacity:1;fill-rule:nonzero;stroke:none"
             id="path14916" />
        </g>
        <g
           id="g14918"
           transform="translate(122.7695,402.2275)">
          <path
             d="m 0,0 c -1.679,-5.469 -2.544,-11.4 -2.498,-17.85 0,-1.557 0.39,-3.116 1.096,-4.528 2.637,-10.295 7.44,-22.244 14.855,-36.176 l 47.777,1.435 z"
             style="fill:#df2200;fill-opacity:1;fill-rule:nonzero;stroke:none"
             id="path14920" />
        </g>
        <g
           id="g14922"
           transform="translate(387.8359,371.208)">
          <path
             d="m 0,0 c 0.73,0.073 1.461,0.098 2.191,0.098 10.662,0.074 20.471,2.02 29.38,5.988 1.364,0.608 2.824,1.071 4.284,1.388 1.514,0.327 3.004,0.587 4.472,0.782 l 19.641,9.615 C 46.896,21.391 34.201,23.806 22.151,24.342 11.66,25.608 1.485,25.512 -8.397,24.123 -14.378,23.961 -19.872,22.992 -25.024,21.714 L -30.281,-4.1 C -20.223,-2.314 -10.131,-0.935 0,0"
             style="fill:#14b4ec;fill-opacity:1;fill-rule:nonzero;stroke:none"
             id="path14924" />
        </g>
        <g
           id="g14926"
           transform="translate(183.7002,352.6592)">
          <path
             d="m 0,0 c -10.305,16.459 -21.793,31.799 -34.949,45.52 10.402,-0.051 18.76,18.987 27.308,41.808 l -32.144,-3.134 c -2.002,-3.5 -4.018,-7.02 -6.045,-10.559 -7.072,-6.859 -12.257,-14.797 -15.101,-24.067 L 0.3,-7.551 Z"
             style="fill:#dc2b00;fill-opacity:1;fill-rule:nonzero;stroke:none"
             id="path14928" />
        </g>
        <g
           id="g14930"
           transform="translate(183.7002,352.6592)">
          <path
             d="M 0,0 0.3,-7.551 2.304,-3.73 C 1.542,-2.48 0.774,-1.237 0,0"
             style="fill:#df5e00;fill-opacity:1;fill-rule:nonzero;stroke:none"
             id="path14932" />
        </g>
        <g
           id="g14934"
           transform="translate(335.6807,363.2422)">
          <path
             d="m 0,0 c 0.507,0.014 1.016,0.019 1.524,0.007 0.902,0 1.777,0.098 2.629,0.293 5.897,1.325 11.803,2.515 17.721,3.566 L 27.131,29.68 C 15.233,26.728 5.167,22.123 -4.805,21.988 c -0.807,0.023 -1.607,0.06 -2.399,0.108 l -5.334,-6.614 z"
             style="fill:#67d7ef;fill-opacity:1;fill-rule:nonzero;stroke:none"
             id="path14936" />
        </g>
        <g
           id="g14938"
           transform="translate(480.2373,387.6387)">
          <path
             d="M 0,0 C -4.196,0.149 -8.239,0.171 -12.151,0.083 L 2.14,-1.147 C 1.656,-0.479 0.879,-0.029 0,0"
             style="fill:#0074d4;fill-opacity:1;fill-rule:nonzero;stroke:none"
             id="path14940" />
        </g>
        <g
           id="g14942"
           transform="translate(186.0039,348.9287)">
          <path
             d="m 0,0 -2.004,-3.82 4.019,0.476 C 1.349,-2.225 0.677,-1.109 0,0"
             style="fill:#e88200;fill-opacity:1;fill-rule:nonzero;stroke:none"
             id="path14944" />
        </g>
        <g
           id="g14946"
           transform="translate(228.2754,390.2686)">
          <path
             d="m 0,0 c 2.159,-0.1 4.109,0.891 5.761,3.451 l -3.522,7.32 C 2.055,6.993 1.361,3.385 0,0"
             style="fill:#e88200;fill-opacity:1;fill-rule:nonzero;stroke:none"
             id="path14948" />
        </g>
        <g
           id="g14950"
           transform="translate(231.7227,350.7676)">
          <path
             d="M 0,0 21.737,2.577 13.983,18.695 C 9.758,12.26 5.077,6.037 0,0"
             style="fill:#e88200;fill-opacity:1;fill-rule:nonzero;stroke:none"
             id="path14952" />
        </g>
        <g
           id="g14954"
           transform="translate(253.46,353.3447)">
          <path
             d="m 0,0 42.798,-28.22 c 6.244,8.193 9.793,18.178 9.449,30.748 -0.024,1.144 0.852,2.094 1.995,2.119 3.054,0.071 6.168,0.684 9.333,1.467 l 6.108,19.266 z"
             style="fill:#dcf07c;fill-opacity:1;fill-rule:nonzero;stroke:none"
             id="path14956" />
        </g>
        <g
           id="g14958"
           transform="translate(446.5879,377.752)">
          <path
             d="m 0,0 1.814,11.165 c -0.2,0.054 -0.399,0.107 -0.598,0.162 L -18.425,1.712 C -11.773,2.592 -5.61,2.086 0,0"
             style="fill:#31bded;fill-opacity:1;fill-rule:nonzero;stroke:none"
             id="path14960" />
        </g>
        <g
           id="g14962"
           transform="translate(479.7998,381.0674)">
          <path
             d="M 0,0 C 1.216,-0.098 2.386,0.657 2.774,1.801 2.993,2.482 3.091,3.213 3.091,3.943 3.072,4.49 2.883,5 2.577,5.424 l -14.291,1.23 c -3.758,-0.084 -7.394,-0.27 -10.925,-0.545 -1.387,-0.096 -2.775,0.049 -4.113,0.439 -1.336,0.386 -2.667,0.76 -3.995,1.124 l 9.234,-10.867 C -13.814,-0.567 -6.627,0.566 0,0"
             style="fill:#0069d5;fill-opacity:1;fill-rule:nonzero;stroke:none"
             id="path14964" />
        </g>
        <g
           id="g14966"
           transform="translate(449.2266,376.6367)">
          <path
             d="m 0,0 c 1.68,-0.804 3.602,-0.827 5.306,-0.145 1.265,0.499 2.516,0.959 3.754,1.38 l -9.234,10.868 c -0.217,0.059 -0.434,0.118 -0.651,0.177 L -2.639,1.115 C -1.745,0.783 -0.865,0.413 0,0"
             style="fill:#0181dd;fill-opacity:1;fill-rule:nonzero;stroke:none"
             id="path14968" />
        </g>
        <g
           id="g14970"
           transform="translate(253.46,353.3447)">
          <path
             d="m 0,0 -21.737,-2.577 c -3.249,-3.864 -6.659,-7.653 -10.214,-11.373 -10.491,4.015 -21.007,5.087 -31.523,2.847 -0.65,1.12 -1.307,2.233 -1.967,3.343 l -4.019,-0.476 56.325,-28.497 z"
             style="fill:#f38900;fill-opacity:1;fill-rule:nonzero;stroke:none"
             id="path14972" />
        </g>
        <g
           id="g14974"
           transform="translate(317.0352,359.459)">
          <path
             d="M 0,0 C 6.043,1.495 12.275,3.608 18.646,3.783 L 6.107,19.266 Z"
             style="fill:#b7f3bb;fill-opacity:1;fill-rule:nonzero;stroke:none"
             id="path14976" />
        </g>
        <g
           id="g14978"
           transform="translate(147.8545,323.6357)">
          <path
             d="m 0,0 c 2.628,-4.208 5.455,-8.568 8.491,-13.087 0.902,-1.339 0.852,-3.091 -0.049,-4.406 -0.339,-0.491 -0.641,-1.04 -0.909,-1.64 l 39.076,4.762 z"
             style="fill:#ef3500;fill-opacity:1;fill-rule:nonzero;stroke:none"
             id="path14980" />
        </g>
        <g
           id="g14982"
           transform="translate(184,345.1084)">
          <path
             d="m 0,0 -47.777,-1.435 c 3.335,-6.267 7.198,-12.936 11.631,-20.038 l 46.61,-14.371 z"
             style="fill:#f43800;fill-opacity:1;fill-rule:nonzero;stroke:none"
             id="path14984" />
        </g>
        <g
           id="g14986"
           transform="translate(184,345.1084)">
          <path
             d="m 0,0 10.464,-35.844 45.861,7.347 z"
             style="fill:#f77700;fill-opacity:1;fill-rule:nonzero;stroke:none"
             id="path14988" />
        </g>
        <g
           id="g14990"
           transform="translate(240.3252,316.6113)">
          <path
             d="m 0,0 50.518,2.456 c 1.974,1.906 3.786,3.921 5.415,6.058 L 13.135,36.733 Z"
             style="fill:#f2da4a;fill-opacity:1;fill-rule:nonzero;stroke:none"
             id="path14992" />
        </g>
        <g
           id="g14994"
           transform="translate(194.4639,309.2646)">
          <path
             d="m 0,0 -39.076,-4.762 c -5.217,-11.679 2.794,-43.148 3.626,-63.997 l 10.738,-7.38 z"
             style="fill:#fb6100;fill-opacity:1;fill-rule:nonzero;stroke:none"
             id="path14996" />
        </g>
        <g
           id="g14998"
           transform="translate(159.0479,235.1143)">
          <path
             d="m 0,0 c -0.199,-0.888 -0.385,-1.783 -0.556,-2.685 l 11.26,0.697 -10.738,7.38 C 0.041,3.5 0.059,1.694 0,0"
             style="fill:#f55a00;fill-opacity:1;fill-rule:nonzero;stroke:none"
             id="path15000" />
        </g>
        <g
           id="g15002"
           transform="translate(233.4688,278.4268)">
          <path
             d="m 0,0 c 2.449,1.587 4.897,3.253 7.294,5.055 1.899,1.435 3.919,2.652 6.085,3.651 6.605,3.078 12.543,6.787 18.003,10.942 L 6.856,38.185 Z"
             style="fill:#ffd100;fill-opacity:1;fill-rule:nonzero;stroke:none"
             id="path15004" />
        </g>
        <g
           id="g15006"
           transform="translate(264.8506,298.0752)">
          <path
             d="m 0,0 c 3.477,2.645 6.76,5.47 9.893,8.433 1.485,1.412 3.117,2.653 4.844,3.773 4.145,2.667 7.93,5.574 11.255,8.786 l -50.517,-2.456 z"
             style="fill:#f9ed2d;fill-opacity:1;fill-rule:nonzero;stroke:none"
             id="path15008" />
        </g>
        <g
           id="g15010"
           transform="translate(194.4639,309.2646)">
          <path
             d="m 0,0 16.673,-45.79 c 6.285,5.411 14.314,9.756 22.332,14.952 l 6.856,38.185 z"
             style="fill:#fd9d00;fill-opacity:1;fill-rule:nonzero;stroke:none"
             id="path15012" />
        </g>
        <g
           id="g15014"
           transform="translate(169.752,233.126)">
          <path
             d="m 0,0 37.069,-3.934 c 0.751,8.706 0.765,17.414 -0.063,26.126 -0.22,2.287 0.584,4.576 2.215,6.183 0.694,0.676 1.418,1.332 2.164,1.974 l -16.673,45.79 z"
             style="fill:#ff9300;fill-opacity:1;fill-rule:nonzero;stroke:none"
             id="path15016" />
        </g>
        <g
           id="g15018"
           transform="translate(169.752,233.126)">
          <path
             d="m 0,0 -11.26,-0.696 c -2.561,-13.49 -1.948,-28.533 1.018,-44.709 0.758,-2.639 1.215,-5.395 1.368,-8.27 L 8.237,-67.901 Z"
             style="fill:#fb6800;fill-opacity:1;fill-rule:nonzero;stroke:none"
             id="path15020" />
        </g>
        <g
           id="g15022"
           transform="translate(160.8779,179.4512)">
          <path
             d="m 0,0 c 0.27,-5.087 -0.417,-10.548 -2.11,-16.408 l 19.221,2.181 z"
             style="fill:#f35c00;fill-opacity:1;fill-rule:nonzero;stroke:none"
             id="path15024" />
        </g>
        <g
           id="g15026"
           transform="translate(177.9893,165.2246)">
          <path
             d="m 0,0 22.38,30.021 c 3.25,11.314 5.475,22.628 6.452,33.947 l -37.069,3.933 z"
             style="fill:#ff8500;fill-opacity:1;fill-rule:nonzero;stroke:none"
             id="path15028" />
        </g>
        <g
           id="g15030"
           transform="translate(187.6328,160.9863)">
          <path
             d="M 0,0 C 5.135,11.422 9.457,22.84 12.736,34.259 L -9.644,4.238 Z"
             style="fill:#fe9400;fill-opacity:1;fill-rule:nonzero;stroke:none"
             id="path15032" />
        </g>
        <g
           id="g15034"
           transform="translate(158.7676,163.043)">
          <path
             d="m 0,0 c -0.917,-3.17 -2.126,-6.456 -3.639,-9.863 -0.463,-1.047 -0.755,-2.142 -0.852,-3.287 -0.542,-5.564 -0.666,-11.207 -0.386,-16.927 L 19.222,2.182 Z"
             style="fill:#f04f00;fill-opacity:1;fill-rule:nonzero;stroke:none"
             id="path15036" />
        </g>
        <g
           id="g15038"
           transform="translate(177.9893,165.2246)">
          <path
             d="m 0,0 -24.099,-32.259 c 0.7,-14.3 3.926,-29.08 9.491,-44.293 0.462,-1.264 0.73,-2.603 0.778,-3.942 0.134,-4.403 0.375,-8.725 0.737,-12.95 l 12.87,0.164 z"
             style="fill:#f64e00;fill-opacity:1;fill-rule:nonzero;stroke:none"
             id="path15040" />
        </g>
        <g
           id="g15042"
           transform="translate(177.7666,71.9443)">
          <path
             d="M 0,0 10.146,9.051 C 6.543,28.708 7.52,56.135 8.592,83.719 c 0.074,1.825 0.512,3.627 1.266,5.306 0.002,0.006 0.005,0.012 0.008,0.017 L 0.223,93.28 Z"
             style="fill:#fd7700;fill-opacity:1;fill-rule:nonzero;stroke:none"
             id="path15044" />
        </g>
        <g
           id="g15046"
           transform="translate(190.1768,71.6562)">
          <path
             d="M 0,0 C -0.903,2.861 -1.649,5.987 -2.264,9.339 L -12.41,0.288 Z"
             style="fill:#fd7400;fill-opacity:1;fill-rule:nonzero;stroke:none"
             id="path15048" />
        </g>
        <g
           id="g15050"
           transform="translate(230.4473,36.8232)">
          <path
             d="m 0,0 0.214,0.1 c 0.95,0.461 0.973,1.776 0.024,2.239 -12.804,6.28 -24.756,14.606 -36.098,24.391 -1.339,1.169 -2.411,2.653 -3.068,4.334 -0.481,1.198 -0.929,2.456 -1.343,3.769 l -12.41,0.288 z"
             style="fill:#fa6200;fill-opacity:1;fill-rule:nonzero;stroke:none"
             id="path15052" />
        </g>
        <g
           id="g15054"
           transform="translate(164.8965,71.7803)">
          <path
             d="M 0,0 C 0.545,-6.344 1.365,-12.471 2.522,-18.33 L 12.87,0.164 Z"
             style="fill:#f03600;fill-opacity:1;fill-rule:nonzero;stroke:none"
             id="path15056" />
        </g>
        <g
           id="g15058"
           transform="translate(167.4189,53.4502)">
          <path
             d="m 0,0 c 0.867,-4.392 1.922,-8.634 3.19,-12.704 0.561,-1.826 2.07,-3.19 3.92,-3.605 6.889,-1.533 13.486,-0.972 19.766,2.338 0.607,0.317 1.289,0.535 1.995,0.583 10.468,0.463 18.987,-3.406 26.971,-5.426 1.047,-0.246 2.142,-0.149 3.14,0.291 l 4.046,1.896 -52.68,35.121 z"
             style="fill:#f64d00;fill-opacity:1;fill-rule:nonzero;stroke:none"
             id="path15060" />
        </g>
      </g>
    </g>
  </g>
</svg>
