<?xml version="1.0" encoding="UTF-8" standalone="no"?>
<!-- Created with Inkscape (http://www.inkscape.org/) -->

<svg
   version="1.1"
   id="svg15171"
   width="800"
   height="800"
   viewBox="0 0 800 800"
   sodipodi:docname="yoga-pose-47-publicdomainvectors.org.svg"
   inkscape:version="1.2 (dc2aedaf03, 2022-05-15)"
   xmlns:inkscape="http://www.inkscape.org/namespaces/inkscape"
   xmlns:sodipodi="http://sodipodi.sourceforge.net/DTD/sodipodi-0.dtd"
   xmlns="http://www.w3.org/2000/svg"
   xmlns:svg="http://www.w3.org/2000/svg">
  <defs
     id="defs15175">
    <clipPath
       clipPathUnits="userSpaceOnUse"
       id="clipPath15187">
      <path
         d="M 0,600 H 600 V 0 H 0 Z"
         id="path15185" />
    </clipPath>
  </defs>
  <sodipodi:namedview
     id="namedview15173"
     pagecolor="#ffffff"
     bordercolor="#000000"
     borderopacity="0.25"
     inkscape:showpageshadow="2"
     inkscape:pageopacity="0.0"
     inkscape:pagecheckerboard="0"
     inkscape:deskcolor="#d1d1d1"
     showgrid="false"
     inkscape:zoom="1.04625"
     inkscape:cx="400"
     inkscape:cy="400.4779"
     inkscape:window-width="1920"
     inkscape:window-height="1017"
     inkscape:window-x="-8"
     inkscape:window-y="-8"
     inkscape:window-maximized="1"
     inkscape:current-layer="g15179">
    <inkscape:page
       x="0"
       y="0"
       id="page15177"
       width="800"
       height="800" />
  </sodipodi:namedview>
  <g
     id="g15179"
     inkscape:groupmode="layer"
     inkscape:label="Page 1"
     transform="matrix(1.3333333,0,0,-1.3333333,0,800)">
    <g
       id="g15181">
      <g
         id="g15183"
         clip-path="url(#clipPath15187)">
        <g
           id="g15189"
           transform="translate(303.2041,543.2417)">
          <path
             d="m 0,0 c 2.898,3.926 4.663,8.43 6.243,13.014 0.607,1.713 1.238,3.477 1.133,5.347 -0.131,2.635 -1.265,3.925 -3.899,3.635 -1.818,-0.21 -2.081,0.528 -2.634,1.898 -1.29,3.187 -2.74,3.555 -5.717,1.66 -0.79,-0.502 -1.29,-0.976 -2.422,-0.528 -3.452,1.291 -4.111,1.107 -5.717,-2.24 -0.136,-0.285 -0.272,-0.572 -0.407,-0.858 L -0.667,-1.001 C -0.464,-0.661 -0.244,-0.326 0,0"
             style="fill:#ab8fff;fill-opacity:1;fill-rule:nonzero;stroke:none"
             id="path15191" />
        </g>
        <g
           id="g15193"
           transform="translate(302.5371,542.2407)">
          <path
             d="m 0,0 -12.753,22.929 c -2.387,-5.035 -4.694,-10.095 -5.914,-15.578 -0.239,-1.029 -0.475,-2.056 -0.791,-3.031 -0.185,-0.632 -0.581,-1.291 -1.291,-1.291 -0.896,0.054 -1.291,0.738 -1.449,1.608 -0.58,3.504 -0.896,7.008 0.053,10.51 0.29,1.133 0.658,2.266 0.553,3.478 -0.263,2.739 -1.898,3.529 -4.373,2.266 -1.37,-0.686 -1.792,-1.792 -2.08,-3.109 -0.976,-4.399 -1.134,-8.825 -0.528,-13.251 0.289,-1.976 0.5,-3.926 -0.079,-5.848 -1.278,-4.299 -1.97,-8.662 -2.261,-13.086 l 28.286,7.279 C -1.872,-4.711 -1.33,-2.219 0,0"
             style="fill:#b28ed9;fill-opacity:1;fill-rule:nonzero;stroke:none"
             id="path15195" />
        </g>
        <g
           id="g15197"
           transform="translate(317.4297,528.8325)">
          <path
             d="M 0,0 C 1.133,0.422 2.213,1.08 1.976,2.555 1.712,4.004 0.685,4.82 -0.738,4.978 -3.398,5.321 -5.953,5.084 -8.378,3.768 -8.739,3.566 -9.104,3.371 -9.471,3.177 L -6.26,-3.275 C -4.332,-1.957 -2.277,-0.821 0,0"
             style="fill:#6dc9ff;fill-opacity:1;fill-rule:nonzero;stroke:none"
             id="path15199" />
        </g>
        <g
           id="g15201"
           transform="translate(299.7017,516.7407)">
          <path
             d="m 0,0 c 1.58,0.975 3.133,1.924 4.504,3.136 2.246,2.01 4.501,3.994 6.964,5.68 L 8.257,15.269 C 6.892,14.544 5.505,13.857 4.135,13.172 3.081,12.645 1.896,11.961 0.816,12.803 c -1.212,0.948 -1.712,2.476 -1.185,3.899 0.213,0.55 0.4,1.11 0.577,1.674 L -28.077,11.097 C -28.248,8.5 -28.282,5.881 -28.214,3.24 c 0.071,-3.247 0.549,-6.624 -0.4,-9.856 l 17.643,-6.975 C -10.023,-6.373 -8.228,-4.999 0,0"
             style="fill:#abc3ee;fill-opacity:1;fill-rule:nonzero;stroke:none"
             id="path15203" />
        </g>
        <g
           id="g15205"
           transform="translate(286.8989,485.2349)">
          <path
             d="m 0,0 c 0.579,4.662 1,9.325 1.422,13.988 0.13,1.483 0.26,2.779 0.41,3.927 l -17.643,6.975 c -0.099,-0.334 -0.207,-0.666 -0.337,-0.997 -0.923,-2.318 -1.292,-4.795 -1.688,-7.245 -1.104,-6.691 -2.264,-13.382 -3.476,-20.046 -1.502,-8.352 -3.662,-16.596 -3.899,-25.159 -0.01,-0.325 -0.023,-0.65 -0.035,-0.976 L 0.668,-17.904 C -0.086,-11.966 -0.749,-6.032 0,0"
             style="fill:#c8c4cf;fill-opacity:1;fill-rule:nonzero;stroke:none"
             id="path15207" />
        </g>
        <g
           id="g15209"
           transform="translate(291.9028,387.7427)">
          <path
             d="m 0,0 c -0.816,2.346 -1.375,4.795 -1.553,7.398 -0.106,1.555 -0.554,3.082 -0.817,4.637 -1.501,8.773 -3.189,17.597 -1.608,26.475 0.166,0.934 0.316,1.869 0.451,2.803 l -27.879,10.893 c -0.196,-1.705 -0.411,-3.408 -0.653,-5.108 -0.211,-1.423 -0.342,-2.872 0.342,-4.242 1.634,-3.398 1.844,-7.033 1.897,-10.721 0.052,-2.871 0.027,-5.743 0.369,-8.614 0.326,-2.862 0.77,-5.7 1.215,-8.537 l 10.344,-21.501 z"
             style="fill:#dae2c5;fill-opacity:1;fill-rule:nonzero;stroke:none"
             id="path15211" />
        </g>
        <g
           id="g15213"
           transform="translate(288.1626,462.5796)">
          <path
             d="M 0,0 C -0.189,1.585 -0.395,3.168 -0.596,4.751 L -26.51,-6.878 c -0.176,-5.258 -0.557,-10.516 -1.156,-15.753 L 0.213,-33.524 C 1.839,-22.325 1.314,-11.186 0,0"
             style="fill:#afdfde;fill-opacity:1;fill-rule:nonzero;stroke:none"
             id="path15215" />
        </g>
        <g
           id="g15217"
           transform="translate(378.499,372.0259)">
          <path
             d="M 0,0 C -0.464,1.25 -0.982,2.538 -1.561,3.885 -1.834,4.532 -2.1,5.142 -2.291,5.748 l -1.555,-7.63 z"
             style="fill:#14b4ff;fill-opacity:1;fill-rule:nonzero;stroke:none"
             id="path15219" />
        </g>
        <g
           id="g15221"
           transform="translate(376.208,377.7739)">
          <path
             d="m 0,0 c -0.363,1.148 -0.46,2.291 0.178,3.669 0.711,1.554 -0.239,2.818 -1.95,3.108 -1.028,0.185 -2.107,0.29 -3.135,0.132 -3.134,-0.474 -5.927,0.527 -8.641,1.87 -0.724,0.355 -1.444,0.714 -2.165,1.075 L -1.555,-7.63 Z"
             style="fill:#67d7ff;fill-opacity:1;fill-rule:nonzero;stroke:none"
             id="path15223" />
        </g>
        <g
           id="g15225"
           transform="translate(263.6665,402.7271)">
          <path
             d="m 0,0 c 0.707,-4.502 1.415,-9.003 1.657,-13.593 0.152,-2.965 0.404,-5.916 0.76,-8.848 l 7.928,0.94 z"
             style="fill:#e88263;fill-opacity:1;fill-rule:nonzero;stroke:none"
             id="path15227" />
        </g>
        <g
           id="g15229"
           transform="translate(325.8027,347.0747)">
          <path
             d="m 0,0 15.153,47.807 c -1.949,1.2 -3.957,2.297 -5.612,3.973 -2.214,2.213 -3.609,2.003 -5.19,-0.816 -1.002,-1.79 -2.107,-2.502 -4.084,-1.843 -2.107,0.657 -3.872,0.394 -4.82,-1.951 -0.343,-0.843 -1.212,-1.764 -2.134,-1.157 -1.923,1.263 -3.345,0.763 -4.874,-0.633 -0.922,-0.843 -2.133,-0.764 -3.345,-0.633 -4.558,0.554 -5.717,-0.422 -5.531,-4.899 0.13,-3.767 -0.897,-7.271 -2.083,-10.722 -1.026,-3.056 -3.37,-3.214 -5.109,-0.475 -2.462,3.855 -4.791,7.764 -6.271,12.017 l -17.892,-6.517 z"
             style="fill:#dcf0df;fill-opacity:1;fill-rule:nonzero;stroke:none"
             id="path15231" />
        </g>
        <g
           id="g15233"
           transform="translate(380.3789,365.9985)">
          <path
             d="M 0,0 C -0.481,1.955 -1.102,3.937 -1.88,6.027 L -5.726,4.146 Z"
             style="fill:#31bdff;fill-opacity:1;fill-rule:nonzero;stroke:none"
             id="path15235" />
        </g>
        <g
           id="g15237"
           transform="translate(381.4063,360.2368)">
          <path
             d="M 0,0 C -0.217,1.948 -0.555,3.843 -1.027,5.762 L -6.753,9.907 Z"
             style="fill:#8bebff;fill-opacity:1;fill-rule:nonzero;stroke:none"
             id="path15239" />
        </g>
        <g
           id="g15241"
           transform="translate(266.0835,380.2856)">
          <path
             d="M 0,0 C 0.575,-4.744 1.422,-9.439 2.561,-14.07 L 7.928,0.94 Z"
             style="fill:#f38963;fill-opacity:1;fill-rule:nonzero;stroke:none"
             id="path15243" />
        </g>
        <g
           id="g15245"
           transform="translate(374.6533,370.144)">
          <path
             d="m 0,0 -14.158,17.483 c -1.851,0.928 -3.695,1.87 -5.554,2.798 -2.686,1.37 -5.347,2.74 -8.561,2.109 -1.211,-0.211 -2.397,0.263 -3.318,0.947 -0.68,0.504 -1.389,0.959 -2.106,1.4 l -15.154,-47.806 z"
             style="fill:#b7f3ff;fill-opacity:1;fill-rule:nonzero;stroke:none"
             id="path15247" />
        </g>
        <g
           id="g15249"
           transform="translate(274.0112,381.2261)">
          <path
             d="m 0,0 -5.367,-15.011 c 1.209,-4.919 2.745,-9.763 4.635,-14.513 0.933,-2.357 1.652,-4.679 2.096,-7.079 l 50.428,2.452 z"
             style="fill:#f2daad;fill-opacity:1;fill-rule:nonzero;stroke:none"
             id="path15251" />
        </g>
        <g
           id="g15253"
           transform="translate(325.8027,347.0747)">
          <path
             d="M 0,0 22.842,-69.659 48.851,23.069 Z"
             style="fill:#d8f8f3;fill-opacity:1;fill-rule:nonzero;stroke:none"
             id="path15255" />
        </g>
        <g
           id="g15257"
           transform="translate(348.6445,277.416)">
          <path
             d="m 0,0 21.615,8.383 c 0.254,2.265 1.008,4.47 2.78,6.367 1.792,1.896 3.61,4.268 2.029,7.35 -0.395,0.736 -0.264,1.58 0.105,2.265 1.028,1.95 0.633,3.767 -0.105,5.664 -0.368,0.949 -0.816,1.949 -0.685,3.029 0.685,5.691 1.87,11.276 2.555,16.991 0.711,5.875 2.029,11.803 3.926,17.52 0.289,0.869 0.473,1.764 0.552,2.686 0.381,4.786 0.413,8.778 -0.01,12.566 l -6.753,9.907 z"
             style="fill:#c5f5ff;fill-opacity:1;fill-rule:nonzero;stroke:none"
             id="path15259" />
        </g>
        <g
           id="g15261"
           transform="translate(348.6445,277.416)">
          <path
             d="m 0,0 -74.881,56.595 c -0.039,-0.039 -0.076,-0.078 -0.116,-0.117 -6.192,-6.059 -12.498,-12.023 -18.123,-18.624 l -11.141,-62.053 z"
             style="fill:#ffd163;fill-opacity:1;fill-rule:nonzero;stroke:none"
             id="path15263" />
        </g>
        <g
           id="g15265"
           transform="translate(325.8027,347.0747)">
          <path
             d="m 0,0 -50.427,-2.451 c 0.321,-1.731 0.501,-3.502 0.512,-5.356 0,-2.359 -0.702,-3.82 -2.125,-5.257 l 74.882,-56.595 z"
             style="fill:#f9ed90;fill-opacity:1;fill-rule:nonzero;stroke:none"
             id="path15267" />
        </g>
        <g
           id="g15269"
           transform="translate(255.5249,315.27)">
          <path
             d="m 0,0 c -0.979,-1.148 -1.939,-2.313 -2.872,-3.505 -6.85,-8.719 -10.96,-18.283 -7.956,-29.689 1.423,-5.427 0.816,-10.511 -1.738,-15.542 -0.719,-1.408 -1.354,-2.839 -1.855,-4.311 l 3.279,-9.006 z"
             style="fill:#fd9d63;fill-opacity:1;fill-rule:nonzero;stroke:none"
             id="path15271" />
        </g>
        <g
           id="g15273"
           transform="translate(241.104,262.2227)">
          <path
             d="m 0,0 c -0.82,-2.414 -1.28,-4.943 -1.148,-7.675 0.013,-0.288 0.022,-0.577 0.034,-0.865 l 4.393,-0.466 z"
             style="fill:#ff9363;fill-opacity:1;fill-rule:nonzero;stroke:none"
             id="path15275" />
        </g>
        <g
           id="g15277"
           transform="translate(367.5742,275.3926)">
          <path
             d="m 0,0 c 1.248,3.221 2.337,6.504 2.647,10.029 0.011,0.126 0.025,0.251 0.039,0.377 L -18.93,2.023 Z"
             style="fill:#cbf3ea;fill-opacity:1;fill-rule:nonzero;stroke:none"
             id="path15279" />
        </g>
        <g
           id="g15281"
           transform="translate(244.3833,253.2168)">
          <path
             d="m 0,0 47.762,-30.145 c -0.128,1.04 -0.234,2.084 -0.32,3.13 -0.818,9.748 4.188,17.545 8.824,25.421 0.763,1.292 2.212,2.213 3.714,2.74 0.79,0.317 1.58,0.053 2.082,-0.658 0.395,-0.553 0.421,-1.317 -0.264,-1.686 -1.633,-0.948 -0.949,-1.897 -0.079,-2.819 0.869,-0.973 1.738,-1.975 2.766,-2.765 1.738,-1.291 2.292,-2.767 1.212,-4.743 -0.527,-0.921 -1.002,-2.054 -0.29,-2.95 2.055,-2.555 3.108,-5.743 5.453,-8.087 1.027,-1.028 2.107,-1.264 3.503,-1.371 7.298,-0.552 12.83,3.162 17.808,7.64 0.353,0.314 0.68,0.659 0.994,1.015 l 11.096,39.477 z"
             style="fill:#ffce63;fill-opacity:1;fill-rule:nonzero;stroke:none"
             id="path15283" />
        </g>
        <g
           id="g15285"
           transform="translate(337.5488,237.9385)">
          <path
             d="m 0,0 c 1.873,2.119 3.297,4.679 6.883,4.229 0.104,-0.027 0.289,0.078 0.342,0.183 1.581,2.503 4.557,2.925 6.849,4.321 4.426,2.66 6.981,7.403 11.487,9.878 2.132,1.186 2.264,2.819 1.527,5.005 -0.923,2.661 -0.422,5.164 0.605,7.93 0.742,1.975 1.567,3.93 2.332,5.908 l -18.929,2.023 z"
             style="fill:#f6e69d;fill-opacity:1;fill-rule:nonzero;stroke:none"
             id="path15287" />
        </g>
        <g
           id="g15289"
           transform="translate(197.0835,192.2393)">
          <path
             d="M 0,0 C -0.739,-0.016 -1.477,-0.038 -2.216,-0.066 L 0.258,-2.123 Z"
             style="fill:#fb6863;fill-opacity:1;fill-rule:nonzero;stroke:none"
             id="path15291" />
        </g>
        <g
           id="g15293"
           transform="translate(268.3569,158.9062)">
          <path
             d="m 0,0 47.823,34.211 c -3.418,2.519 -6.896,4.985 -10.895,6.585 -4.662,1.843 -7.718,5.347 -9.641,9.799 -1.895,4.33 -2.927,8.906 -3.499,13.571 l -47.762,30.145 z"
             style="fill:#feb263;fill-opacity:1;fill-rule:nonzero;stroke:none"
             id="path15295" />
        </g>
        <g
           id="g15297"
           transform="translate(194.8677,192.1738)">
          <path
             d="m 0,0 c -3.988,-0.15 -7.957,-0.473 -11.893,-1.061 -9.984,-1.475 -20.232,-0.552 -30.004,-4.477 -2.001,-0.797 -4.042,-1.515 -6.082,-2.246 l 50.453,5.726 z"
             style="fill:#f35c63;fill-opacity:1;fill-rule:nonzero;stroke:none"
             id="path15299" />
        </g>
        <g
           id="g15301"
           transform="translate(198.9458,192.2686)">
          <path
             d="m 0,0 c -0.621,-0.006 -1.242,-0.016 -1.862,-0.029 l 0.257,-2.123 z"
             style="fill:#ff8563;fill-opacity:1;fill-rule:nonzero;stroke:none"
             id="path15303" />
        </g>
        <g
           id="g15305"
           transform="translate(239.9897,253.6826)">
          <path
             d="m 0,0 c 0.085,-2.077 0.103,-4.158 0.088,-6.241 l 4.306,5.775 z"
             style="fill:#ff8563;fill-opacity:1;fill-rule:nonzero;stroke:none"
             id="path15307" />
        </g>
        <g
           id="g15309"
           transform="translate(268.3569,158.9062)">
          <path
             d="m 0,0 -23.974,94.311 -4.305,-5.776 c -0.02,-2.862 -0.094,-5.727 -0.122,-8.595 -0.053,-3.133 0.21,-6.321 -0.343,-9.403 -1.923,-11.196 -1.949,-22.602 -3.399,-33.878 -0.29,-2.186 -0.763,-3.188 -3.161,-3.45 -5.611,-0.633 -11.248,-0.606 -16.834,-0.316 -5.752,0.286 -11.525,0.527 -17.273,0.469 l -1.605,-2.152 z"
             style="fill:#fe9463;fill-opacity:1;fill-rule:nonzero;stroke:none"
             id="path15311" />
        </g>
        <g
           id="g15313"
           transform="translate(167.6196,150.3311)">
          <path
             d="M 0,0 29.722,39.785 -20.73,34.059 c -3.222,-1.157 -6.439,-2.348 -9.488,-3.945 -3.715,-1.924 -5.005,-4.953 -5.19,-8.905 -0.395,-7.692 1.687,-15.305 0.923,-22.997 -0.159,-1.687 0.948,-3.61 1.238,-5.269 0.343,-2.159 0.236,-4.346 0.052,-6.507 -0.685,-8.166 0.553,-16.411 1.528,-24.551 0.148,-1.215 0.309,-2.428 0.474,-3.641 L -1.676,-2.244 C -1.54,-1.094 -0.969,-0.396 0,0"
             style="fill:#f04f63;fill-opacity:1;fill-rule:nonzero;stroke:none"
             id="path15315" />
        </g>
        <g
           id="g15317"
           transform="translate(171.937,100.3887)">
          <path
             d="m 0,0 c 1.002,8.64 0.421,17.254 -0.737,25.764 -0.817,6.004 -2.714,11.906 -4.583,17.754 -0.578,1.813 -0.793,3.17 -0.673,4.18 L -35.511,8.187 c 0.637,-4.662 1.376,-9.311 2.064,-13.966 l 32.548,0.413 C -0.526,-3.599 -0.206,-1.816 0,0"
             style="fill:#f64e63;fill-opacity:1;fill-rule:nonzero;stroke:none"
             id="path15319" />
        </g>
        <g
           id="g15321"
           transform="translate(167.6196,150.3311)">
          <path
             d="m 0,0 c 0.778,0.317 1.81,0.442 3.079,0.45 1.028,0 2.002,0.212 3.083,0.133 5.083,-0.474 9.931,-1.949 14.858,-3.161 2.931,-0.718 5.779,-1.678 8.594,-2.734 l 0.108,45.097 z"
             style="fill:#f64e63;fill-opacity:1;fill-rule:nonzero;stroke:none"
             id="path15323" />
        </g>
        <g
           id="g15325"
           transform="translate(354.3828,138.3818)">
          <path
             d="m 0,0 c -6.449,4.331 -12.402,9.186 -17.011,15.51 -5.243,7.19 -7.509,15.673 -10.3,23.945 -0.013,0.037 -0.026,0.075 -0.039,0.112 l -0.326,-59.527 z"
             style="fill:#fb9b63;fill-opacity:1;fill-rule:nonzero;stroke:none"
             id="path15327" />
        </g>
        <g
           id="g15329"
           transform="translate(326.707,118.4219)">
          <path
             d="m 0,0 0.326,59.527 c -1.567,4.631 -3.13,9.606 -7.259,12.532 -1.204,0.863 -2.396,1.754 -3.594,2.636 L -58.35,40.484 Z"
             style="fill:#ffa363;fill-opacity:1;fill-rule:nonzero;stroke:none"
             id="path15331" />
        </g>
        <g
           id="g15333"
           transform="translate(197.3413,190.1162)">
          <path
             d="m 0,0 -0.107,-45.097 c 4.623,-1.732 9.156,-3.723 13.823,-5.327 9.675,-3.294 19.616,-4.805 29.682,-5.424 l 27.618,24.638 z"
             style="fill:#fd7763;fill-opacity:1;fill-rule:nonzero;stroke:none"
             id="path15335" />
        </g>
        <g
           id="g15337"
           transform="translate(406.3164,86.5332)">
          <path
             d="m 0,0 0.72,14.049 c -3.861,0.486 -7.785,0.555 -11.342,2.439 -10.853,5.797 -20.6,13.014 -27.844,23.077 -3.53,4.9 -7.982,8.641 -12.909,11.908 -0.186,0.124 -0.372,0.25 -0.559,0.376 l -27.675,-19.96 z"
             style="fill:#f56563;fill-opacity:1;fill-rule:nonzero;stroke:none"
             id="path15339" />
        </g>
        <g
           id="g15341"
           transform="translate(415.3789,99.3965)">
          <path
             d="M 0,0 C -2.385,0.32 -4.768,0.648 -7.145,1.019 -7.543,1.08 -7.942,1.135 -8.343,1.186 l -0.72,-14.049 z"
             style="fill:#e07063;fill-opacity:1;fill-rule:nonzero;stroke:none"
             id="path15343" />
        </g>
        <g
           id="g15345"
           transform="translate(268.3569,158.9062)">
          <path
             d="m 0,0 2.544,-24.508 c 3.076,0.159 6.151,0.346 9.227,0.553 1.423,0.104 2.82,0.21 4.163,-0.659 4.267,-2.793 8.586,-5.48 12.223,-9.142 2.029,-2.028 4.004,-4.136 6.321,-5.848 3.406,-2.522 6.845,-5.003 10.325,-7.416 l 13.547,6.536 z"
             style="fill:#ff8863;fill-opacity:1;fill-rule:nonzero;stroke:none"
             id="path15347" />
        </g>
        <g
           id="g15349"
           transform="translate(240.7388,134.2686)">
          <path
             d="m 0,0 c 4.104,-0.252 8.226,-0.357 12.361,-0.372 5.934,0 11.867,0.197 17.801,0.502 l -2.544,24.508 z"
             style="fill:#fd7463;fill-opacity:1;fill-rule:nonzero;stroke:none"
             id="path15351" />
        </g>
        <g
           id="g15353"
           transform="translate(455.0801,88.8262)">
          <path
             d="M 0,0 C -5.157,2.777 -10.556,5.078 -16.367,6.583 -24.038,8.563 -31.88,9.52 -39.701,10.57 L -48.764,-2.293 Z"
             style="fill:#d54263;fill-opacity:1;fill-rule:nonzero;stroke:none"
             id="path15355" />
        </g>
        <g
           id="g15357"
           transform="translate(168.1704,82.0791)">
          <path
             d="M 0,0 C 0.711,4.361 1.952,8.605 2.867,12.943 L -29.681,12.53 c 0.519,-3.511 1.006,-7.026 1.391,-10.554 L -2.034,-17.508 C -1.723,-11.662 -0.959,-5.834 0,0"
             style="fill:#f03663;fill-opacity:1;fill-rule:nonzero;stroke:none"
             id="path15359" />
        </g>
        <g
           id="g15361"
           transform="translate(313.1602,111.8867)">
          <path
             d="m 0,0 c 2.953,-2.047 5.936,-4.044 8.958,-5.967 0.919,-0.58 1.838,-1.16 2.757,-1.74 l 1.832,14.242 z"
             style="fill:#ff7263;fill-opacity:1;fill-rule:nonzero;stroke:none"
             id="path15363" />
        </g>
        <g
           id="g15365"
           transform="translate(326.707,118.4219)">
          <path
             d="m 0,0 -1.832,-14.242 c 9.224,-5.822 18.471,-11.613 28.197,-16.621 5.294,-2.74 11.248,-4.504 15.807,-8.43 3.755,-3.233 7.864,-4.767 12.338,-5.336 l 25.099,12.74 z"
             style="fill:#fc6363;fill-opacity:1;fill-rule:nonzero;stroke:none"
             id="path15367" />
        </g>
        <g
           id="g15369"
           transform="translate(495.7676,33.7217)">
          <path
             d="m 0,0 8.671,22.217 c -0.285,0.185 -0.573,0.365 -0.868,0.51 -3.636,1.816 -6.639,4.61 -10.011,6.849 -3.523,2.345 -7.032,4.719 -10.533,7.111 L -4.393,0.979 C -2.938,0.58 -1.473,0.26 0,0"
             style="fill:#be0069;fill-opacity:1;fill-rule:nonzero;stroke:none"
             id="path15371" />
        </g>
        <g
           id="g15373"
           transform="translate(507.9961,32.5283)">
          <path
             d="m 0,0 c 6.348,-0.315 12.724,-0.342 19.071,-0.475 1.423,-0.026 3.003,-0.052 4.294,0.607 1.345,0.685 1.949,2.106 2.768,3.318 1.104,1.635 1.949,3.425 2.053,5.454 0.053,1.739 -0.369,2.923 -2.028,3.792 -4.215,2.161 -8.562,3.874 -13.198,4.848 -1.923,0.422 -3.767,0.976 -5.506,1.924 -2.634,1.396 -5.11,3.107 -8.351,2.845 -0.968,-0.08 -1.803,0.539 -2.661,1.097 L -12.229,1.193 C -8.196,0.484 -4.104,0.222 0,0"
             style="fill:#b00082;fill-opacity:1;fill-rule:nonzero;stroke:none"
             id="path15375" />
        </g>
        <g
           id="g15377"
           transform="translate(381.2168,73.793)">
          <path
             d="m 0,0 c 1.393,-0.178 2.82,-0.263 4.284,-0.275 6.664,-0.052 13.197,-1.475 19.651,-2.74 1.969,-0.389 3.931,-0.814 5.884,-1.269 L 25.1,12.74 Z"
             style="fill:#f23763;fill-opacity:1;fill-rule:nonzero;stroke:none"
             id="path15379" />
        </g>
        <g
           id="g15381"
           transform="translate(411.0361,69.5088)">
          <path
             d="m 0,0 c 10.07,-2.344 19.925,-5.571 29.39,-9.874 0.285,-0.131 0.571,-0.259 0.858,-0.385 l 26.375,21.762 c -4.09,2.815 -8.249,5.482 -12.579,7.814 L -4.72,17.024 Z"
             style="fill:#db2f63;fill-opacity:1;fill-rule:nonzero;stroke:none"
             id="path15383" />
        </g>
        <g
           id="g15385"
           transform="translate(166.1362,64.5713)">
          <path
             d="m 0,0 -26.256,19.483 c 0.342,-3.139 0.604,-6.29 0.735,-9.456 0.291,-6.876 -0.052,-13.725 -0.526,-20.628 -0.282,-4.293 -1.565,-7.836 -3.791,-10.463 l 29.825,10.443 C -0.212,-7.07 -0.188,-3.532 0,0"
             style="fill:#e42363;fill-opacity:1;fill-rule:nonzero;stroke:none"
             id="path15387" />
        </g>
        <g
           id="g15389"
           transform="translate(110.9536,37.3486)">
          <path
             d="m 0,0 c -1.055,0.132 -2.135,0.29 -3.135,0 -1.002,-0.29 -1.924,-1.159 -1.897,-2.213 0.026,-0.712 0.474,-1.316 0.922,-1.843 0.021,-0.026 0.046,-0.05 0.067,-0.077 L 8.841,0.379 C 5.858,-0.032 2.829,-0.416 0,0"
             style="fill:#e42363;fill-opacity:1;fill-rule:nonzero;stroke:none"
             id="path15391" />
        </g>
        <g
           id="g15393"
           transform="translate(466.2676,50.125)">
          <path
             d="m 0,0 c 0.79,-0.369 1.766,-0.421 2.688,-0.447 1.976,-0.079 3.872,-0.607 5.742,-1.159 4.663,-1.343 8.851,-3.425 12.671,-6.613 0.842,-0.684 1.95,-1.633 2.161,-2.765 0.21,-1.107 -0.843,-2.266 -0.343,-3.293 0.264,-0.528 0.895,-0.765 1.476,-0.949 0.237,-0.069 0.475,-0.133 0.712,-0.199 L 16.759,20.283 C 11.962,23.561 7.18,26.87 2.398,30.19 2.064,30.424 1.728,30.655 1.392,30.887 L -24.983,9.125 C -16.843,5.545 -8.04,3.817 0,0"
             style="fill:#ca1563;fill-opacity:1;fill-rule:nonzero;stroke:none"
             id="path15395" />
        </g>
        <g
           id="g15397"
           transform="translate(166.6958,47.833)">
          <path
             d="M 0,0 C -0.271,2.044 -0.457,4.082 -0.572,6.117 L -30.398,-4.326 c -2.567,-3.031 -6.388,-4.845 -11.383,-5.183 -1.658,-0.106 -3.382,-0.356 -5.12,-0.596 l -12.884,-4.512 c 2.637,-3.093 6.764,-5.218 10.865,-5.193 13.36,0.024 26.72,-0.04 40.08,-0.164 L 0.549,-4.587 C 0.309,-3.071 0.197,-1.539 0,0"
             style="fill:#db1363;fill-opacity:1;fill-rule:nonzero;stroke:none"
             id="path15399" />
        </g>
        <g
           id="g15401"
           transform="translate(167.5386,28.7881)">
          <path
             d="m 0,0 c 1.106,0.816 1.659,2.213 1.765,3.582 0.131,1.686 0.026,4.848 -0.738,6.376 -0.712,1.477 -1.081,2.98 -1.321,4.5 L -9.683,-0.929 c 1.708,-0.015 3.416,-0.029 5.125,-0.047 1.58,0 3.293,0.027 4.558,0.976"
             style="fill:#dd1c63;fill-opacity:1;fill-rule:nonzero;stroke:none"
             id="path15403" />
        </g>
      </g>
    </g>
  </g>
</svg>
